HIERARCHY
ROOT Hips
{
  OFFSET 3.13124 94.3669 -3.18751
  CHANNELS  6 Xposition Yposition Zposition Zrotation Xrotation Yrotation
  JOINT LeftUpLeg
  {
    OFFSET 8.64259 1.95398 -2.38835
    CHANNELS 3 Zrotation Xrotation Yrotation
    JOINT LeftLeg
    {
      OFFSET 43.7702 0 0
      CHANNELS 3 Zrotation Xrotation Yrotation
      JOINT LeftFoot
      {
        OFFSET 40.6238 0 0
        CHANNELS 3 Zrotation Xrotation Yrotation
        JOINT LeftToeBase
        {
          OFFSET 12.7242 0 0
          CHANNELS 3 Zrotation Xrotation Yrotation
          End Site
          {
            OFFSET 0 0 0
          }
        }
      }
    }
  }
  JOINT RightUpLeg
  {
    OFFSET -8.2249 1.95398 -2.59336
    CHANNELS 3 Zrotation Xrotation Yrotation
    JOINT RightLeg
    {
      OFFSET 43.5653 0 0
      CHANNELS 3 Zrotation Xrotation Yrotation
      JOINT RightFoot
      {
        OFFSET 40.6238 0 0
        CHANNELS 3 Zrotation Xrotation Yrotation
        JOINT RightToeBase
        {
          OFFSET 12.7242 0 0
          CHANNELS 3 Zrotation Xrotation Yrotation
          End Site
          {
            OFFSET 0 0 0
          }
        }
      }
    }
  }
  JOINT Spine
  {
    OFFSET 0.165834 0.87714 6.61349
    CHANNELS 3 Zrotation Xrotation Yrotation
    JOINT Spine1
    {
      OFFSET 7.38962 1.71661e-005 0
      CHANNELS 3 Zrotation Xrotation Yrotation
      JOINT Spine2
      {
        OFFSET 11.9445 1.14441e-005 0
        CHANNELS 3 Zrotation Xrotation Yrotation
        JOINT Spine3
        {
          OFFSET 14.7254 4.19617e-005 0
          CHANNELS 3 Zrotation Xrotation Yrotation
          JOINT Spine4
          {
            OFFSET 10.9679 0 0
            CHANNELS 3 Zrotation Xrotation Yrotation
            JOINT RightShoulder
            {
              OFFSET 2.46616 -1.6653 3.69651
              CHANNELS 3 Zrotation Xrotation Yrotation
              JOINT RightArm
              {
                OFFSET 13.0012 0 0
                CHANNELS 3 Zrotation Xrotation Yrotation
                JOINT RightForeArm
                {
                  OFFSET 28.7848 1.52588e-005 0
                  CHANNELS 3 Zrotation Xrotation Yrotation
                  JOINT RightHand
                  {
                    OFFSET 26.5688 1.52588e-005 0
                    CHANNELS 3 Zrotation Xrotation Yrotation
                    End Site
                    {
                      OFFSET 0 0 0
                    }
                  }
                }
              }
            }
            JOINT LeftShoulder
            {
              OFFSET 2.38034 -1.29275 -3.75231
              CHANNELS 3 Zrotation Xrotation Yrotation
              JOINT LeftArm
              {
                OFFSET 16.3182 6.10352e-005 0
                CHANNELS 3 Zrotation Xrotation Yrotation
                JOINT LeftForeArm
                {
                  OFFSET 27.0901 0 0
                  CHANNELS 3 Zrotation Xrotation Yrotation
                  JOINT LeftHand
                  {
                    OFFSET 24.5451 1.52588e-005 0
                    CHANNELS 3 Zrotation Xrotation Yrotation
                    End Site
                    {
                      OFFSET 0 0 0
                    }
                  }
                }
              }
            }
            JOINT Neck
            {
              OFFSET 5.0226 -0.0266342 0
              CHANNELS 3 Zrotation Xrotation Yrotation
              JOINT Head
              {
                OFFSET 6.69363 2.86102e-005 0
                CHANNELS 3 Zrotation Xrotation Yrotation
                End Site
                {
                  OFFSET 0 0 0
                }
              }
            }
          }
        }
      }
    }
  }
}
MOTION
Frames:	8
Frame Time:	0.0333333
-5.82386 97.2534 -18.7414 -176.868 -89.9958 -176.886 -170.635 3.36821 92.0014 -10.0294 9.04339 3.28117 63.9265 0.664239 0.307386 28.7808 4.45906e-006 2.58474e-006 168.066 2.8464 91.3641 -10.2522 -11.4822 -2.95048 64.0441 -0.765961 -0.37688 28.7808 1.27766e-005 2.54296e-005 -0.0013192 6.3402 -89.9835 14.1935 7.01205e-006 1.81699e-006 2.52251 1.72047e-006 2.40314e-006 -20.0126 0.00188457 -6.29455e-006 -1.13809e-006 0.00188926 -4.22665e-009 101.032 -18.5305 -84.972 -3.15201 40.8716 -22.1946 3.51349 0.204945 -9.70332 -5.37983 -0.320008 -0.0162405 -79.2168 -21.8654 93.8187 8.48785 -40.6722 -19.1969 2.16429 41.9593 -4.46918 -0.780068 -0.0357739 -0.422337 1.74117 -0.00124027 0.00377573 -7.40307 -0.00963058 -0.00160429 
-5.82749 97.2267 -18.7353 -179.569 -89.9351 -179.7 -170.638 3.58332 91.9048 -10.6362 9.00776 3.28085 64.0744 0.472835 0.189705 28.7808 4.45906e-006 2.58474e-006 168.026 2.57775 91.1991 -9.84764 -11.4895 -2.9471 64.4219 -0.185472 -0.0647811 28.7808 1.27766e-005 2.54296e-005 -0.00908093 6.33917 -89.8838 14.1935 7.01205e-006 1.81699e-006 2.52251 1.72047e-006 2.40314e-006 -20.0126 0.00188457 -6.29455e-006 -1.13809e-006 0.00188926 -4.22665e-009 101 -18.4582 -85.0001 -3.19222 40.7885 -22.0663 3.59103 0.204935 -9.72009 -5.37983 -0.320008 -0.0162405 -79.2956 -21.9346 93.6896 8.46448 -40.7765 -19.2021 2.50823 42.0866 -4.70647 -1.59586 -0.0618917 -0.155976 1.55703 -0.0198866 0.0605285 -7.29539 -0.00963058 -0.025528 
-5.82977 97.2572 -18.7345 -155.143 -89.9584 -155.161 -170.638 3.29202 92.0084 -9.94901 9.05044 3.28081 63.89 0.647843 0.298957 28.7808 4.45906e-006 2.58474e-006 168.071 2.84811 91.3737 -10.3498 -11.6741 -3.02859 64.0187 -0.806724 -0.397864 28.7808 1.27766e-005 2.54296e-005 -4.80773e-005 6.34023 -89.9997 14.1935 7.01205e-006 1.81699e-006 2.52251 1.72047e-006 2.40314e-006 -20.0126 0.00188457 -6.29455e-006 -1.13809e-006 0.00188926 -4.22665e-009 101.046 -18.4918 -84.9217 -3.08388 40.795 -22.2365 3.56152 0.204867 -9.72203 -5.37983 -0.320008 -0.0162405 -79.269 -21.8961 93.7135 8.37619 -40.7084 -19.2648 2.50251 42.0018 -4.70017 -1.76135 -0.0689513 -0.323852 1.61152 -0.0189224 0.06125 -7.43837 -0.00963058 -0.0226065 
-5.83852 97.2705 -18.7408 -140.612 -89.9359 -140.641 -170.641 3.3025 92.0163 -9.98319 8.99349 3.27414 63.8564 0.446532 0.183099 28.7808 4.45906e-006 2.58474e-006 168.062 2.87635 91.3689 -10.409 -11.6591 -3.01885 63.9691 -0.846399 -0.419014 28.7808 1.27766e-005 2.54296e-005 0.00030079 6.34022 -90.0039 14.1935 7.01205e-006 1.81699e-006 2.52251 1.72047e-006 2.40314e-006 -20.0126 0.00188457 -6.29455e-006 -1.13809e-006 0.00188926 -4.22665e-009 101.026 -18.4939 -84.9771 -3.11528 40.7992 -22.1869 3.56629 0.203746 -9.72146 -5.37983 -0.320008 -0.0162405 -79.2966 -21.8511 93.643 8.3252 -40.6934 -19.235 2.5301 41.9731 -4.68635 -1.90205 -0.0740965 -0.387244 1.48018 -0.0243205 0.049226 -7.36084 -0.00983366 -0.0121077 
-5.86178 97.2024 -18.7562 -144.106 -89.8904 -144.265 -170.633 3.65842 91.8971 -10.8365 8.92481 3.27753 64.1644 0.460787 0.181717 28.7808 4.45906e-006 2.58474e-006 168.051 2.5122 91.1912 -9.74687 -11.5865 -2.99223 64.5398 -0.0142904 0.0259548 28.7808 1.27766e-005 2.54296e-005 -0.0112141 6.33859 -89.8558 14.1935 7.01205e-006 1.81699e-006 2.52251 1.72047e-006 2.40314e-006 -20.0126 0.00188457 -6.29455e-006 -1.13809e-006 0.00188926 -4.22665e-009 100.983 -18.4471 -85.0671 -3.2038 40.7582 -21.999 3.62377 0.202552 -9.72528 -5.37983 -0.320008 -0.0162405 -79.3577 -21.8335 93.5262 8.28217 -40.7895 -19.2231 2.61856 41.9299 -4.7075 -1.96069 -0.0752091 -0.19785 1.29955 -0.0255074 0.0278101 -7.20463 -0.0115382 -0.0370626 
-5.86349 97.2573 -18.7673 -137.062 -89.8965 -137.104 -170.649 3.30373 91.9994 -10.0278 8.9435 3.28713 63.9024 0.553237 0.244292 28.7808 4.45906e-006 2.58474e-006 168.062 2.82543 91.3557 -10.3281 -11.6359 -3.0055 64.0729 -0.667764 -0.320799 28.7808 1.27766e-005 2.54296e-005 -0.00106045 6.34019 -89.9868 14.1935 2.91325e-005 2.48275e-005 2.52255 2.51448e-005 2.44195e-005 -20.0126 0.00188457 2.32712e-005 4.13911e-005 0.00188926 2.89262e-005 100.975 -18.4323 -84.9793 -3.15502 40.7361 -22.0776 3.61992 0.201364 -9.72749 -5.37983 -0.320008 -0.0162405 -79.3739 -21.7751 93.5721 8.1956 -40.767 -19.2893 2.61997 41.998 -4.66974 -1.92623 -0.0749073 -0.370885 1.38246 -0.0374732 -0.027828 -7.34861 0.00966287 0.0180422 
-5.87697 97.2463 -18.7979 -95.0625 -89.8919 -95.0717 -170.623 3.36885 92.0402 -9.98351 8.94166 3.24819 63.927 0.677604 0.3158 28.7808 4.45906e-006 2.58474e-006 168.101 2.939 91.4154 -10.3943 -11.653 -3.0168 64.0791 -0.641866 -0.305364 28.7808 1.27766e-005 2.54296e-005 -0.00056973 6.34064 -89.9955 14.1926 -0.000460242 -0.000458972 2.52166 -0.000480614 -0.000437573 -20.0135 0.00188457 -0.000571479 -0.000844419 0.00188926 -0.00057481 101.004 -18.4237 -85.0052 -3.14729 40.7494 -22.0438 3.60039 0.200258 -9.72335 -5.37983 -0.320008 -0.0162405 -79.3205 -21.719 93.6131 8.19783 -40.7646 -19.3136 2.61724 41.9837 -4.6593 -2.03926 -0.0735466 -0.370478 1.42242 0.00668502 -0.0256278 -7.32459 0.0266866 -0.0598694 
-5.89253 97.2463 -18.804 -124.354 -89.8431 -124.432 -170.633 3.39776 91.9821 -10.2294 8.89665 3.27488 63.97 0.598089 0.267214 28.7808 4.45906e-006 2.58474e-006 168.067 2.74429 91.3188 -10.1494 -11.6761 -3.00829 64.215 -0.381956 -0.165521 28.7808 1.27766e-005 2.54296e-005 -0.00900668 6.35218 -89.9502 14.1694 -0.0124975 -0.0132418 2.49849 -0.0130723 -0.0126819 -20.0367 0.00188457 -0.0163935 -0.0240151 0.00188926 -0.0163893 100.995 -18.3297 -85.0705 -3.21334 40.7356 -21.9471 3.62608 0.199294 -9.73839 -5.37983 -0.320008 -0.0162405 -79.3 -21.7437 93.6337 8.22837 -40.762 -19.2268 2.63365 41.9046 -4.70726 -2.04147 -0.0714788 -0.272071 1.38869 0.0395098 0.0137544 -7.24253 0.0396934 -0.0361808 
